<?xml version="1.0" encoding="UTF-8"?>
<svg version="1.1" xmlns="http://www.w3.org/2000/svg" width="600" height="600">
<path d="M0 0 C198 0 396 0 600 0 C600 198 600 396 600 600 C402 600 204 600 0 600 C0 402 0 204 0 0 Z " fill="#CBCBCB" transform="translate(0,0)"/>
<path d="M0 0 C1.0401828 -0.00852997 2.0803656 -0.01705994 3.15206909 -0.02584839 C4.8555954 -0.02448883 4.8555954 -0.02448883 6.59353638 -0.02310181 C8.39412003 -0.03317764 8.39412003 -0.03317764 10.2310791 -0.04345703 C13.52043585 -0.0592001 16.80964105 -0.06581208 20.09903097 -0.0670886 C22.15545957 -0.06851123 24.2118618 -0.07278292 26.26828384 -0.07808304 C33.44637988 -0.09658091 40.62440168 -0.10475398 47.80252075 -0.10317993 C54.48728186 -0.10197865 61.17172002 -0.12307865 67.85639942 -0.15466726 C73.60091538 -0.18084304 79.34532596 -0.19154669 85.08990109 -0.19026911 C88.51852407 -0.18975984 91.94686 -0.19542294 95.37542343 -0.21662521 C99.20100518 -0.23620142 103.02575396 -0.230479 106.85134888 -0.21841431 C107.98298462 -0.22965332 109.11462036 -0.24089233 110.2805481 -0.25247192 C116.4086904 -0.20331554 120.28357782 -0.00204758 124.85183716 4.26742554 C126.52729406 7.05467456 127.10299348 9.1160276 127.11253357 12.3526001 C127.11961838 13.15718658 127.12670319 13.96177307 127.13400269 14.79074097 C127.13152527 15.66460449 127.12904785 16.53846802 127.12649536 17.43881226 C127.13160629 18.36610138 127.13671722 19.2933905 127.14198303 20.2487793 C127.15588594 23.31495616 127.15492159 26.38090839 127.15261841 29.44711304 C127.15650522 31.5793669 127.16083986 33.71161999 127.16560364 35.84387207 C127.17306755 40.3143464 127.1727735 44.78474177 127.16751099 49.25521851 C127.16171903 54.98072104 127.17864007 60.70589979 127.20185566 66.4313488 C127.21659708 70.8357329 127.21746408 75.24003912 127.21434593 79.64444351 C127.21485903 81.75513474 127.22009463 83.86583035 127.23015785 85.97649765 C127.24251134 88.93029475 127.23573666 91.88346253 127.22415161 94.83724976 C127.23179535 95.70706482 127.23943909 96.57687988 127.24731445 97.47305298 C127.2042326 102.44945517 126.76389565 106.03886995 123.85183716 110.26742554 C120.33388539 112.7922062 117.89253545 113.64349749 113.5834198 113.65510559 C112.54186234 113.66501022 111.50030487 113.67491486 110.42718506 113.68511963 C109.29509613 113.68061798 108.1630072 113.67611633 106.99661255 113.67147827 C105.79607742 113.67834152 104.5955423 113.68520477 103.35862732 113.692276 C100.0733893 113.70742549 96.78850755 113.70904226 93.50324941 113.70333362 C90.75725687 113.70023922 88.0113155 113.70633701 85.26533026 113.71237236 C78.78541476 113.72641064 72.30563112 113.72486228 65.82571411 113.71347046 C59.14829996 113.7019906 52.47128752 113.71606388 45.7939263 113.74286693 C40.05362312 113.765043 34.31344586 113.77165703 28.57310289 113.76579052 C25.14786593 113.76242415 21.72288643 113.76481426 18.29768562 113.78204155 C14.47697135 113.79690854 10.65714275 113.78630438 6.8364563 113.76913452 C5.7063916 113.77880249 4.5763269 113.78847046 3.41201782 113.7984314 C-2.68666748 113.74100454 -6.64729088 113.58868001 -11.14816284 109.26742554 C-13.87142869 104.91271759 -13.44387773 99.96342077 -13.43869019 94.98251343 C-13.44540741 94.05507828 -13.45212463 93.12764313 -13.45904541 92.17210388 C-13.47801765 89.11137512 -13.48194901 86.05086566 -13.48410034 82.99008179 C-13.49052802 80.8592571 -13.49725636 78.7284333 -13.50427246 76.59761047 C-13.51624273 72.1331172 -13.51995346 67.6687013 -13.51876831 63.20419312 C-13.51856496 57.48648752 -13.54588518 51.76927806 -13.58031273 46.0516901 C-13.60255896 41.65159327 -13.60660657 37.25161636 -13.60554886 32.85146904 C-13.60790755 30.74355799 -13.6167461 28.63564378 -13.63221359 26.52778816 C-13.65183024 23.57874978 -13.64605263 20.63078825 -13.63400269 17.68173218 C-13.6452417 16.81348816 -13.65648071 15.94524414 -13.6680603 15.0506897 C-13.61224515 9.66955273 -12.82775492 6.47247488 -9.14816284 2.26742554 C-6.04152808 0.31514496 -3.63804095 0.01350433 0 0 Z " fill="#A2A2A2" transform="translate(243.14816284179688,243.73257446289063)"/>
<path d="M0 0 C1.00962799 -0.00281982 2.01925598 -0.00563965 3.05947876 -0.00854492 C4.17640106 -0.00652069 5.29332336 -0.00449646 6.4440918 -0.00241089 C8.1975441 -0.00503937 8.1975441 -0.00503937 9.98641968 -0.00772095 C13.20121494 -0.011379 16.41596932 -0.01050611 19.63076401 -0.00734186 C22.98821858 -0.00481777 26.34567033 -0.00715593 29.703125 -0.00872803 C35.34237156 -0.01054958 40.98160504 -0.00814379 46.62084961 -0.00338745 C53.14931314 0.00205515 59.67774545 0.00029248 66.20620823 -0.00521386 C71.80195414 -0.00974539 77.39769062 -0.01039534 82.99343777 -0.00777519 C86.33967539 -0.00621264 89.68589832 -0.00601805 93.03213501 -0.00931168 C96.7606216 -0.0118365 100.48904728 -0.008 104.2175293 -0.00241089 C105.3344516 -0.00443512 106.4513739 -0.00645935 107.60214233 -0.00854492 C109.11658432 -0.00431519 109.11658432 -0.00431519 110.66162109 0 C111.98567207 0.00056554 111.98567207 0.00056554 113.33647156 0.0011425 C115.33081055 0.12698364 115.33081055 0.12698364 116.33081055 1.12698364 C116.42490534 3.15192596 116.44824176 5.18018234 116.44433594 7.20730591 C116.44422264 9.15921593 116.44422264 9.15921593 116.44410706 11.15055847 C116.43899964 12.58150266 116.43378363 14.01244647 116.4284668 15.44338989 C116.42660258 16.89927624 116.42517869 18.35516322 116.42417908 19.81105042 C116.4203542 23.64977743 116.41052419 27.48846684 116.3994751 31.32717896 C116.38926032 35.2415618 116.38468132 39.1559507 116.37963867 43.07034302 C116.36890188 50.75590707 116.35182584 58.44144009 116.33081055 66.12698364 C113.64406419 64.81682915 111.36717831 63.49280246 109.0534668 61.59573364 C108.15917969 60.87450317 108.15917969 60.87450317 107.24682617 60.13870239 C106.01349342 59.13280192 104.78171366 58.12499426 103.55151367 57.11526489 C99.35511747 53.73822976 95.85480998 51.44919634 90.39331055 50.75198364 C85.43403515 51.35924185 82.3960672 54.16565447 78.76831055 57.43948364 C76.33081055 59.12698364 76.33081055 59.12698364 74.03393555 59.04885864 C70.47164851 57.83397463 68.26633052 55.65266764 65.64331055 53.06448364 C64.58572285 52.05814613 63.5257941 51.05426357 62.46362305 50.05276489 C61.93800781 49.55599243 61.41239258 49.05921997 60.87084961 48.5473938 C57.21254972 45.17326749 53.26518374 42.16718111 49.33081055 39.12698364 C48.7172168 38.59846802 48.10362305 38.06995239 47.47143555 37.52542114 C43.60854694 34.35359976 40.49722209 33.31017982 35.61206055 33.55276489 C32.06381892 34.44590106 29.68198832 36.43868304 26.9597168 38.81448364 C25.33081055 40.12698364 25.33081055 40.12698364 23.33081055 40.12698364 C23.33081055 40.78698364 23.33081055 41.44698364 23.33081055 42.12698364 C21.77840714 43.52024318 20.1605107 44.84078492 18.51831055 46.12698364 C13.48539304 50.14295386 8.73107894 54.35863356 4.03393555 58.76760864 C1.94933599 60.58711461 -0.08716172 62.18470724 -2.33813477 63.77444458 C-2.96343079 64.21721741 -3.58872681 64.65999023 -4.23297119 65.11618042 C-4.70692322 65.44974548 -5.18087524 65.78331055 -5.66918945 66.12698364 C-5.69231605 57.6693103 -5.71010615 49.21165008 -5.72100163 40.75395298 C-5.72622976 36.82709706 -5.73332615 32.9002627 -5.74462891 28.97341919 C-5.75546026 25.18684107 -5.76146681 21.40028374 -5.7640667 17.61369133 C-5.7659205 16.16594045 -5.76954026 14.71819076 -5.77491951 13.27044868 C-5.78213313 11.2494123 -5.78259753 9.22835517 -5.78271484 7.20730591 C-5.78493546 6.0548085 -5.78715607 4.9023111 -5.78944397 3.71488953 C-5.58591204 -0.66516608 -3.9267311 0.00167721 0 0 Z " fill="#CBCBCB" transform="translate(244.669189453125,252.87301635742188)"/>
<path d="M0 0 C4.21444896 1.26061332 6.07222591 2.89119306 9.1640625 5.99609375 C13.50029973 10.22651782 17.95519947 14.09172526 22.7890625 17.74609375 C23.64878662 18.3966272 23.64878662 18.3966272 24.52587891 19.06030273 C25.8601306 20.0643691 27.19904955 21.06222929 28.5390625 22.05859375 C27.17974676 26.13654096 24.77084983 27.10106447 21.25390625 29.36328125 C19.25481699 30.97549605 19.25481699 30.97549605 19.29296875 33.75390625 C19.37417969 34.51445312 19.45539063 35.275 19.5390625 36.05859375 C21.71015829 37.01296446 21.71015829 37.01296446 24.5390625 37.05859375 C26.9567493 35.5192426 28.94811349 34.03394698 31.1015625 32.18359375 C32.34052931 31.16981897 33.5801242 30.15681136 34.8203125 29.14453125 C35.75037109 28.37254395 35.75037109 28.37254395 36.69921875 27.58496094 C39.46997944 25.28628845 42.26679725 23.02773043 45.1015625 20.80859375 C46.03097656 20.0609375 46.96039063 19.31328125 47.91796875 18.54296875 C50.5390625 17.05859375 50.5390625 17.05859375 52.953125 17 C56.56821767 18.47989443 59.3765359 20.77322903 62.3515625 23.24609375 C66.26523455 26.48849868 69.91184278 29.29153784 74.4140625 31.68359375 C76.59037073 33.22881899 77.4065534 34.30835556 77.87255859 36.94677734 C78.28011232 42.01719234 78.07009142 47.00560724 77.5390625 52.05859375 C75.91365868 53.68399757 74.11499925 53.18461844 71.86987305 53.18557739 C70.35543106 53.18980713 70.35543106 53.18980713 68.81039429 53.19412231 C67.13501083 53.19108597 67.13501083 53.19108597 65.42578125 53.18798828 C63.67232895 53.19061676 63.67232895 53.19061676 61.88345337 53.19329834 C58.66865811 53.19695639 55.45390372 53.19608351 52.23910904 53.19291925 C48.88165447 53.19039517 45.52420272 53.19273333 42.16674805 53.19430542 C36.52750149 53.19612697 30.88826801 53.19372118 25.24902344 53.18896484 C18.7205599 53.18352225 12.19212759 53.18528491 5.66366482 53.19079125 C0.06791891 53.19532279 -5.52781757 53.19597273 -11.12356472 53.19335258 C-14.46980234 53.19179003 -17.81602527 53.19159544 -21.16226196 53.19488907 C-24.89074855 53.19741389 -28.61917423 53.19357739 -32.34765625 53.18798828 C-33.46457855 53.19001251 -34.58150085 53.19203674 -35.73226929 53.19412231 C-36.74189728 53.19130249 -37.75152527 53.18848267 -38.79174805 53.18557739 C-39.6744487 53.18520037 -40.55714935 53.18482334 -41.46659851 53.18443489 C-43.4609375 53.05859375 -43.4609375 53.05859375 -44.4609375 52.05859375 C-46.7999659 38.59756274 -46.7999659 38.59756274 -43.25976562 33.24121094 C-40.01016915 29.79084322 -36.18307655 27.09867499 -32.30761719 24.39648438 C-29.59518813 22.43137184 -27.20544834 20.16916776 -24.7734375 17.87109375 C-19.51082638 13.04379463 -14.03432881 8.52077932 -8.4609375 4.05859375 C-7.67460937 3.29289062 -6.88828125 2.5271875 -6.078125 1.73828125 C-3.4609375 0.05859375 -3.4609375 0.05859375 0 0 Z " fill="#CBCBCB" transform="translate(283.4609375,294.94140625)"/>
<path d="M0 0 C3.77702297 2.63513231 6.60374735 5.7074947 8.6875 9.875 C9.42360672 15.9315743 9.71460481 21.31692485 6.0625 26.4375 C2.63133505 30.27561707 -0.44561384 32.49940463 -5.66796875 33.18359375 C-11.78268365 33.48886696 -15.39522429 32.51378402 -20.3125 28.875 C-24.93480483 23.88777637 -25.61927369 19.96853015 -25.5234375 13.375 C-25.10026241 8.35959158 -22.99404014 5.28613714 -19.3125 2.0625 C-13.515012 -2.164835 -6.69222956 -2.27283268 0 0 Z " fill="#A2A2A2" transform="translate(343.3125,263.125)"/>
<path d="M0 0 C2.8125 2.4375 2.8125 2.4375 5 5 C5.33 5.33 5.66 5.66 6 6 C5.79055915 9.70012175 5.45352732 12.29249738 3.4375 15.4375 C-0.03803403 17.66540643 -2.98267037 17.80016627 -7 17 C-10.33219018 14.86398066 -10.89315459 13.3672811 -12 9.5625 C-12 6 -12 6 -10.1875 3.125 C-6.81905269 -0.14720596 -4.66713665 -0.5490749 0 0 Z " fill="#CACACA" transform="translate(338,270)"/>
</svg>
